<svg width="21" height="23" viewBox="0 0 21 23" fill="none" xmlns="http://www.w3.org/2000/svg">
<path fill-rule="evenodd" clip-rule="evenodd" d="M4.60536 15.7493C4.60536 15.1392 5.10456 14.64 5.7147 14.64C6.32483 14.64 6.82403 15.1392 6.82403 15.7493C6.82403 16.3594 6.32483 16.8586 5.7147 16.8586C5.10456 16.8586 4.60536 16.3594 4.60536 15.7493ZM10.152 14.64H14.5894C15.1995 14.64 15.6987 15.1392 15.6987 15.7493C15.6987 16.3594 15.1995 16.8586 14.5894 16.8586H10.152C9.5419 16.8586 9.0427 16.3594 9.0427 15.7493C9.0427 15.1392 9.5419 14.64 10.152 14.64ZM16.808 20.1866H3.49603C2.88479 20.1866 2.3867 19.6885 2.3867 19.0773V12.4213H17.9174V19.0773C17.9174 19.6885 17.4193 20.1866 16.808 20.1866M3.49603 4.65599H4.60536V5.76532C4.60536 6.37545 5.10456 6.87465 5.7147 6.87465C6.32483 6.87465 6.82403 6.37545 6.82403 5.76532V4.65599H13.48V5.76532C13.48 6.37545 13.9792 6.87465 14.5894 6.87465C15.1995 6.87465 15.6987 6.37545 15.6987 5.76532V4.65599H16.808C17.4193 4.65599 17.9174 5.15408 17.9174 5.76532V10.2026H2.3867V5.76532C2.3867 5.15408 2.88479 4.65599 3.49603 4.65599M16.808 2.43732H15.6987V1.32799C15.6987 0.717858 15.1995 0.218658 14.5894 0.218658C13.9792 0.218658 13.48 0.717858 13.48 1.32799V2.43732H6.82403V1.32799C6.82403 0.717858 6.32483 0.218658 5.7147 0.218658C5.10456 0.218658 4.60536 0.717858 4.60536 1.32799V2.43732H3.49603C1.66119 2.43732 0.16803 3.93048 0.16803 5.76532V19.0773C0.16803 20.9121 1.66119 22.4053 3.49603 22.4053H16.808C18.6429 22.4053 20.136 20.9121 20.136 19.0773V5.76532C20.136 3.93048 18.6429 2.43732 16.808 2.43732" fill="black"/>
</svg>
