<svg width="25" height="25" viewBox="0 0 25 25" fill="none" xmlns="http://www.w3.org/2000/svg">
<path fill-rule="evenodd" clip-rule="evenodd" d="M11.5175 0.0441673C12.0198 0.0441673 12.4275 0.451866 12.4275 0.954208C12.4275 1.45655 12.0198 1.86425 11.5175 1.86425H6.98062C3.84523 1.86425 1.82008 4.01195 1.82008 7.33541V17.4235C1.82008 20.747 3.84523 22.8947 6.98062 22.8947H17.6876C20.8229 22.8947 22.8493 20.747 22.8493 17.4235V12.536C22.8493 12.0337 23.257 11.626 23.7593 11.626C24.2617 11.626 24.6694 12.0337 24.6694 12.536V17.4235C24.6694 21.7844 21.8628 24.7148 17.6876 24.7148H6.98062C2.80535 24.7148 0 21.7844 0 17.4235V7.33541C0 2.9745 2.80535 0.0441673 6.98062 0.0441673H11.5175ZM22.0856 1.11025L23.5623 2.58694C24.2818 3.30527 24.6774 4.2602 24.6762 5.27702C24.6762 6.29384 24.2806 7.24756 23.5623 7.96468L14.451 17.076C13.7824 17.7446 12.8918 18.1135 11.9453 18.1135H7.39997C7.15486 18.1135 6.91946 18.014 6.74838 17.838C6.57729 17.6633 6.48386 17.4267 6.48993 17.1804L6.60398 12.595C6.62704 11.6825 6.99469 10.8246 7.64022 10.1779H7.64143L16.7091 1.11025C18.1918 -0.370083 20.6028 -0.370083 22.0856 1.11025ZM15.9621 4.43008L8.92762 11.4653C8.61335 11.7796 8.43499 12.197 8.42407 12.6399L8.33306 16.2934H11.9453C12.4064 16.2934 12.8384 16.115 13.1648 15.7886L20.2417 8.7097L15.9621 4.43008ZM17.9953 2.39765L17.2483 3.14267L21.5279 7.42351L22.2761 6.67727C22.6498 6.30355 22.8561 5.80606 22.8561 5.27702C22.8561 4.74677 22.6498 4.24807 22.2761 3.87435L20.7994 2.39765C20.0265 1.62715 18.7694 1.62715 17.9953 2.39765Z" fill="#FFA901"/>
</svg>
