<svg width="23" height="23" viewBox="0 0 23 23" fill="none" xmlns="http://www.w3.org/2000/svg">
<path fill-rule="evenodd" clip-rule="evenodd" d="M2.72418 10.8928C3.9622 11.3176 4.94839 12.3538 5.36106 13.6672L5.40544 13.8003C5.87801 15.1937 5.6861 16.6935 4.89404 17.8183C4.74982 18.0224 4.78199 18.2665 4.93397 18.3819L7.23251 20.128C7.31349 20.189 7.39225 20.189 7.44106 20.1834C7.49653 20.1746 7.57751 20.1446 7.64296 20.0514L7.89922 19.6876C8.66355 18.6037 9.89491 17.9348 11.195 17.8971C12.6549 17.8671 13.9662 18.5361 14.7826 19.7153L14.9135 19.905C14.979 19.9982 15.0589 20.0292 15.1154 20.0381C15.1642 20.0481 15.2441 20.0448 15.324 19.9826L17.6103 18.2576C17.7701 18.1378 17.8056 17.8816 17.6869 17.7096L17.3984 17.2936C16.6552 16.2198 16.4344 14.8265 16.8083 13.5674C17.2143 12.1962 18.2471 11.1113 19.5727 10.6676L19.7957 10.5921C19.9743 10.5333 20.0708 10.3115 20.0076 10.1074L19.1345 7.31074C19.0935 7.17984 19.0092 7.12104 18.9626 7.09664C18.896 7.06225 18.8239 7.0567 18.7552 7.08L18.378 7.20535C17.0878 7.63466 15.6646 7.4017 14.5719 6.57969L14.4521 6.48983C13.4137 5.70886 12.7958 4.44977 12.8003 3.12301L12.8025 2.8124C12.8025 2.66486 12.7326 2.57278 12.6904 2.53063C12.6505 2.48958 12.5828 2.44077 12.4874 2.44077L9.66195 2.43744C9.48889 2.43744 9.34801 2.60273 9.3469 2.80685L9.34579 3.07531C9.34024 4.42315 8.70903 5.70554 7.65738 6.50758L7.51428 6.6163C6.35725 7.496 4.84855 7.74449 3.48185 7.27857C3.42972 7.26082 3.3809 7.26415 3.33431 7.28855C3.29881 7.3063 3.23447 7.35178 3.20341 7.45273L2.29709 10.3326C2.23163 10.5422 2.33924 10.7608 2.54225 10.8306L2.72418 10.8928ZM7.39558 22.4054C6.85645 22.4054 6.33284 22.2301 5.89133 21.894L3.59279 20.149C2.49455 19.317 2.2516 17.7163 3.05032 16.5814C3.46521 15.9935 3.55063 15.238 3.30658 14.5214L3.24557 14.335C3.04256 13.6894 2.57886 13.188 2.00533 12.9916H2.00422L1.8234 12.9284C0.472232 12.4658 -0.248834 11.0337 0.180478 9.66696L1.08569 6.78824C1.29092 6.13707 1.73354 5.61124 2.33258 5.30839C2.91831 5.01331 3.58058 4.96783 4.19959 5.17971C4.86408 5.40602 5.60179 5.28288 6.17088 4.85024L6.31398 4.74153C6.81984 4.35548 7.1249 3.72871 7.12712 3.06643L7.12823 2.79909C7.13378 1.3747 8.27085 0.218781 9.66084 0.218781H9.66528L12.4908 0.222109C13.1586 0.223218 13.7887 0.487239 14.2635 0.965361C14.7549 1.45901 15.0234 2.11907 15.0211 2.82349L15.0189 3.133C15.0167 3.76088 15.304 4.35437 15.7888 4.71823L15.9075 4.80809C16.4167 5.19081 17.0801 5.30063 17.6758 5.10095L18.0518 4.9756C18.6919 4.7626 19.3731 4.81474 19.9732 5.12203C20.5889 5.43708 21.0437 5.97954 21.2523 6.65069L22.1253 9.44731C22.5469 10.7985 21.8169 12.2561 20.5001 12.6965L20.2772 12.7709C19.6382 12.9861 19.1357 13.5186 18.9349 14.1975C18.7507 14.8198 18.8572 15.5043 19.2222 16.0301L19.5106 16.4461C20.3027 17.5909 20.0497 19.1972 18.9471 20.0281L16.6607 21.7542C16.1116 22.1691 15.4382 22.3366 14.7627 22.229C14.0815 22.1192 13.4869 21.742 13.0887 21.1674L12.9578 20.9766C12.5695 20.4175 11.9483 20.078 11.2971 20.1146C10.6448 20.1324 10.0813 20.4419 9.71298 20.9655L9.45672 21.3294C9.05514 21.8985 8.45943 22.2701 7.78163 22.3766C7.65184 22.3965 7.52316 22.4054 7.39558 22.4054V22.4054ZM11.152 9.64799C10.2346 9.64799 9.48801 10.3946 9.48801 11.312C9.48801 12.2294 10.2346 12.976 11.152 12.976C12.0694 12.976 12.816 12.2294 12.816 11.312C12.816 10.3946 12.0694 9.64799 11.152 9.64799M11.152 15.1946C9.01099 15.1946 7.26934 13.453 7.26934 11.312C7.26934 9.17098 9.01099 7.42933 11.152 7.42933C13.293 7.42933 15.0347 9.17098 15.0347 11.312C15.0347 13.453 13.293 15.1946 11.152 15.1946" fill="black"/>
</svg>
