<svg width="26" height="29" viewBox="0 0 26 29" fill="none" xmlns="http://www.w3.org/2000/svg">
<path fill-rule="evenodd" clip-rule="evenodd" d="M23.0794 9.46539C23.6612 9.51328 24.095 10.0218 24.0485 10.6035C24.0401 10.6993 23.2766 20.1525 22.8371 24.1177C22.5639 26.5785 20.9383 28.0759 18.4845 28.1209C16.6069 28.1533 14.7954 28.1716 13.0248 28.1716C11.1161 28.1716 9.25537 28.1505 7.41432 28.1125C5.05914 28.066 3.42939 26.5391 3.16316 24.1275C2.71945 20.1271 1.96021 10.6979 1.95317 10.6035C1.90528 10.0218 2.33913 9.51188 2.92088 9.46539C3.49418 9.4499 4.01255 9.85276 4.05903 10.4331C4.06353 10.4942 4.37391 14.3448 4.71215 18.1547L4.78008 18.9149C4.95044 20.8086 5.12313 22.6283 5.26339 23.8951C5.41411 25.2657 6.15362 25.9728 7.45799 25.9996C10.9795 26.0742 14.5728 26.0785 18.4465 26.008C19.8326 25.9813 20.5819 25.2882 20.7369 23.8853C21.1736 19.9496 21.9342 10.5289 21.9427 10.4331C21.9891 9.85276 22.5033 9.44708 23.0794 9.46539ZM15.9812 0C17.2743 0 18.411 0.871925 18.7448 2.12136L19.1026 3.89761C19.2183 4.47989 19.7292 4.90512 20.3209 4.91446L24.9435 4.91462C25.5267 4.91462 26 5.38791 26 5.97107C26 6.55423 25.5267 7.02752 24.9435 7.02752L20.3622 7.02731C20.3551 7.02745 20.3479 7.02752 20.3408 7.02752L20.3064 7.02611L5.69304 7.02735C5.68168 7.02746 5.6703 7.02752 5.65892 7.02752L5.63723 7.02611L1.05645 7.02752C0.473291 7.02752 0 6.55423 0 5.97107C0 5.38791 0.473291 4.91462 1.05645 4.91462L5.67808 4.91321L5.82038 4.9042C6.35042 4.83543 6.79093 4.43287 6.89849 3.89761L7.24078 2.18474C7.58871 0.871925 8.72545 0 10.0185 0H15.9812ZM15.9812 2.11291H10.0185C9.68049 2.11291 9.38327 2.33969 9.29735 2.66508L8.96914 4.31314C8.92743 4.52189 8.86669 4.72307 8.78896 4.915H17.2112C17.1334 4.72307 17.0725 4.52189 17.0306 4.31314L16.6883 2.60028C16.6164 2.33969 16.3192 2.11291 15.9812 2.11291Z" fill="#FF4A4A"/>
</svg>
