<svg width="42" height="42" viewBox="0 0 42 42" fill="none" xmlns="http://www.w3.org/2000/svg">
<path d="M21 1.83334C10.4142 1.83334 1.83331 10.4143 1.83331 21C1.83331 31.5858 10.4142 40.1667 21 40.1667C31.5857 40.1667 40.1666 31.5858 40.1666 21C40.1666 10.4143 31.5857 1.83334 21 1.83334Z" stroke="black" stroke-width="2.5" stroke-linecap="round" stroke-linejoin="round"/>
<path d="M6.18604 33.1632C6.18604 33.1632 10.4583 27.7083 21 27.7083C31.5416 27.7083 35.8158 33.1632 35.8158 33.1632M21 21C22.5249 21 23.9875 20.3942 25.0658 19.3159C26.1442 18.2375 26.75 16.775 26.75 15.25C26.75 13.725 26.1442 12.2625 25.0658 11.1841C23.9875 10.1058 22.5249 9.5 21 9.5C19.475 9.5 18.0124 10.1058 16.9341 11.1841C15.8558 12.2625 15.25 13.725 15.25 15.25C15.25 16.775 15.8558 18.2375 16.9341 19.3159C18.0124 20.3942 19.475 21 21 21V21Z" stroke="black" stroke-width="2.5" stroke-linecap="round" stroke-linejoin="round"/>
</svg>
