<svg width="42" height="42" viewBox="0 0 42 42" fill="none" xmlns="http://www.w3.org/2000/svg">
<path d="M14.1967 24.558V30.3949L19.8818 27.0568V9.9656L14.1967 13.3037V19.1407L5.67434 24.1447V18.3077L0 21.6395L3.70235e-07 38.7307L5.67434 35.3989V29.562L14.1967 24.558Z" fill="black"/>
<path d="M27.9657 15.2271C28.4855 16.6005 30.1098 16.0537 32.059 14.9092C34.3764 13.5103 36.3472 11.8444 36.3148 9.07857V8.65892C36.3472 5.82946 34.3764 6.50344 32.059 7.82598C30.1098 8.97048 28.4963 10.3121 27.9657 12.3022L22.1506 15.7167C22.5079 9.74619 26.8178 5.48611 32.059 2.39596C37.5168 -0.783207 42.0216 -1.57164 41.9999 4.90114V6.14738C42.0216 12.6074 37.5168 17.1091 32.059 20.3265C26.8178 23.4039 22.5079 24.205 22.1506 18.6415L27.9657 15.2271Z" fill="black"/>
<path d="M3.89591 39.2637V41.2083L3.77526 41.2791V40.354L2.66816 41.0041V41.9292L2.54751 42V40.0554L2.66816 39.9846V40.8791L3.77526 40.229V39.3345L3.89591 39.2637Z" fill="black"/>
<path d="M7.95872 38.2755L6.99829 38.8394L6.78775 39.5103L6.65764 39.5867L7.41937 37.1948L7.54001 37.124L8.30174 38.6213L8.17163 38.6977L7.95872 38.2755ZM7.91378 38.1824L7.47851 37.3157L7.0456 38.6922L7.91378 38.1824Z" fill="black"/>
<path d="M11.6564 34.707C11.8645 34.5848 12.0278 34.5473 12.146 34.5945C12.2643 34.6399 12.3235 34.7654 12.3235 34.9709C12.3235 35.1746 12.2643 35.3696 12.146 35.5557C12.0278 35.74 11.8645 35.8932 11.6564 36.0155L11.1832 36.2933V36.9294L11.0626 37.0003V35.0557L11.6564 34.707ZM11.6564 35.8877C11.833 35.784 11.9678 35.6594 12.0609 35.514C12.1539 35.3686 12.2004 35.2117 12.2004 35.0432C12.2004 34.8746 12.1539 34.7723 12.0609 34.7362C11.9678 34.6982 11.833 34.7311 11.6564 34.8348L11.1832 35.1126V36.1655L11.6564 35.8877Z" fill="black"/>
<path d="M15.7845 32.2831C15.9927 32.1609 16.1559 32.1234 16.2742 32.1706C16.3925 32.216 16.4516 32.3414 16.4516 32.547C16.4516 32.7507 16.3925 32.9457 16.2742 33.1318C16.1559 33.3161 15.9927 33.4693 15.7845 33.5915L15.3114 33.8693V34.5055L15.1908 34.5763V32.6317L15.7845 32.2831ZM15.7845 33.4638C15.9612 33.36 16.096 33.2355 16.189 33.0901C16.2821 32.9447 16.3286 32.7878 16.3286 32.6192C16.3286 32.4507 16.2821 32.3484 16.189 32.3123C16.096 32.2743 15.9612 32.3072 15.7845 32.4109L15.3114 32.6887V33.7416L15.7845 33.4638Z" fill="black"/>
<path d="M19.8299 31.1829V31.8524L19.7092 31.9232V31.2537L19.0421 30.3703L19.1746 30.2926L19.7731 31.0857L20.3716 29.5897L20.497 29.5161L19.8299 31.1829Z" fill="black"/>
<path d="M27.0257 27.6412C26.8632 27.7366 26.7166 27.7801 26.5857 27.7718C26.4564 27.7625 26.3539 27.7051 26.2782 27.5995C26.204 27.493 26.167 27.3463 26.167 27.1592C26.167 26.9722 26.204 26.7819 26.2782 26.5883C26.3539 26.3939 26.4564 26.2161 26.5857 26.055C26.7166 25.8929 26.8632 25.7642 27.0257 25.6688C27.1455 25.5984 27.2559 25.5568 27.3569 25.5438C27.4578 25.529 27.5438 25.5452 27.6147 25.5924L27.539 25.7285C27.4065 25.6526 27.237 25.6753 27.0304 25.7966C26.8916 25.8781 26.7655 25.9892 26.6519 26.13C26.5384 26.2707 26.4493 26.4258 26.3846 26.5953C26.3199 26.7629 26.2876 26.9272 26.2876 27.0884C26.2876 27.2495 26.3199 27.3768 26.3846 27.4703C26.4493 27.562 26.5384 27.6116 26.6519 27.619C26.7655 27.6264 26.8916 27.5893 27.0304 27.5078C27.2354 27.3875 27.405 27.2101 27.539 26.9759L27.6147 27.0231C27.5438 27.1536 27.457 27.2722 27.3545 27.3787C27.2536 27.4842 27.144 27.5717 27.0257 27.6412Z" fill="black"/>
<path d="M31.147 25.2213C30.9845 25.3167 30.8379 25.3602 30.707 25.3519C30.5761 25.3417 30.4728 25.2838 30.3971 25.1783C30.323 25.0718 30.2859 24.9259 30.2859 24.7407C30.2859 24.5555 30.323 24.3662 30.3971 24.1726C30.4728 23.9782 30.5761 23.7999 30.707 23.6379C30.8379 23.474 30.9845 23.3443 31.147 23.2489C31.3094 23.1536 31.4561 23.11 31.587 23.1184C31.7179 23.1267 31.8204 23.1841 31.8945 23.2906C31.9702 23.3962 32.0081 23.5425 32.0081 23.7295C32.0081 23.9166 31.9702 24.1073 31.8945 24.3018C31.8204 24.4953 31.7179 24.6731 31.587 24.8352C31.4561 24.9972 31.3094 25.1259 31.147 25.2213ZM31.147 25.0907C31.2858 25.0093 31.4111 24.8986 31.5231 24.7588C31.6351 24.6189 31.7234 24.4652 31.7881 24.2976C31.8527 24.1282 31.885 23.9629 31.885 23.8018C31.885 23.6406 31.8527 23.5142 31.7881 23.4226C31.7234 23.329 31.6351 23.2781 31.5231 23.2698C31.4111 23.2614 31.2858 23.298 31.147 23.3795C31.0082 23.461 30.882 23.5721 30.7685 23.7129C30.6565 23.8527 30.5682 24.0073 30.5035 24.1768C30.4389 24.3444 30.4065 24.5088 30.4065 24.6699C30.4065 24.831 30.4389 24.9583 30.5035 25.0519C30.5682 25.1435 30.6565 25.1935 30.7685 25.2019C30.882 25.2093 31.0082 25.1722 31.147 25.0907Z" fill="black"/>
<path d="M35.322 22.7699C35.2006 22.8412 35.0847 22.8852 34.9743 22.9018C34.8655 22.9157 34.7803 22.9018 34.7188 22.8602L34.7732 22.7227C34.8315 22.7606 34.9096 22.774 35.0074 22.7629C35.1067 22.749 35.2108 22.7102 35.3196 22.6463C35.4774 22.5537 35.5964 22.4486 35.6769 22.331C35.7573 22.2134 35.7975 22.0981 35.7975 21.9851C35.7975 21.8981 35.7762 21.8411 35.7336 21.8142C35.691 21.7874 35.6382 21.7786 35.5751 21.7879C35.5121 21.7971 35.4269 21.8184 35.3196 21.8518C35.1982 21.8879 35.1004 21.911 35.0263 21.9212C34.9538 21.9305 34.8915 21.9161 34.8394 21.8781C34.789 21.8374 34.7637 21.7587 34.7637 21.642C34.7637 21.5476 34.785 21.4489 34.8276 21.3462C34.8702 21.2415 34.9348 21.1406 35.0216 21.0434C35.1099 20.9452 35.2195 20.8577 35.3504 20.7808C35.4419 20.7271 35.5318 20.6901 35.6201 20.6697C35.7084 20.6493 35.7849 20.647 35.8495 20.6628L35.8046 20.8031C35.7384 20.7882 35.665 20.7906 35.5846 20.81C35.5057 20.8285 35.4277 20.8605 35.3504 20.9058C35.1974 20.9957 35.0815 21.0998 35.0027 21.2184C34.9238 21.3369 34.8844 21.4536 34.8844 21.5684C34.8844 21.6554 34.9057 21.7124 34.9482 21.7392C34.9908 21.7661 35.0437 21.7749 35.1067 21.7656C35.1698 21.7564 35.2558 21.7355 35.3646 21.7031C35.486 21.667 35.583 21.6443 35.6556 21.6351C35.7281 21.6258 35.7896 21.6406 35.8401 21.6795C35.8921 21.7156 35.9181 21.7911 35.9181 21.9059C35.9181 22.0004 35.8961 22.0995 35.8519 22.2032C35.8093 22.306 35.7431 22.4069 35.6532 22.506C35.5633 22.6051 35.4529 22.693 35.322 22.7699Z" fill="black"/>
<path d="M39.0824 18.7312L38.4863 19.0812V18.9535L39.7992 18.1826V18.3103L39.2031 18.6604V20.4772L39.0824 20.548V18.7312Z" fill="black"/>
</svg>
